<svg xmlns="http://www.w3.org/2000/svg" width="50" height="49.564" style=""><rect id="backgroundrect" width="100%" height="100%" x="0" y="0" fill="none" stroke="none"/>
  
<g class="currentLayer" style=""><title>Layer 1</title><g id="_24_icon" data-name="24 icon" class="selected" stroke="#20d3c2" stroke-opacity="1">
    <path id="Path_30" data-name="Path 30" d="M44.948001220703134,44.54899291992183 h0.007000000000000002 a0.7420000000000001,0.7420000000000001 0 0 0 0.7420000000000001,-0.7360000000000001 c0,-0.3400000000000001 0.009000000000000003,-1.037 0.015000000000000003,-1.8900000000000001 h0.4 a0.7420000000000001,0.7420000000000001 0 1 0 0,-1.484 h-0.39000000000000007 c0.013000000000000003,-2.2 0.021000000000000005,-4.65 -0.005000000000000001,-4.973 a1.3780000000000001,1.3780000000000001 0 0 0 -0.9,-1.247 a1.286,1.286 0 0 0 -1.416,0.533 c-0.505,0.6190000000000001 -3.022,5.165 -3.521,6.07 a0.7430000000000001,0.7430000000000001 0 0 0 0.6500000000000001,1.1 h3.7 c0,0.6650000000000001 -0.010000000000000002,1.306 -0.015000000000000003,1.8770000000000002 A0.7420000000000001,0.7420000000000001 0 0 0 44.948001220703134,44.54899291992183 zm-3.162,-4.11 c0.976,-1.7520000000000002 1.959,-3.478 2.462,-4.3 c0.006000000000000002,0.8570000000000001 0,2.547 -0.011000000000000003,4.3 z" fill="#fff" stroke="#20d3c2" stroke-opacity="1"/>
    <path id="Path_31" data-name="Path 31" d="M36.48300122070313,39.16499291992193 c-1.412,2.017 -2.255,3.121 -2.708,3.714 c-0.545,0.7140000000000001 -0.7280000000000001,0.9540000000000001 -0.6000000000000001,1.3820000000000001 a0.787,0.787 0 0 0 0.512,0.517 c0.35900000000000004,0.11900000000000002 3.725,0.06500000000000002 4.7780000000000005,0.05200000000000001 a0.7420000000000001,0.7420000000000001 0 0 0 -0.019000000000000003,-1.484 c-1.117,0.014000000000000002 -2.313,0.022000000000000006 -3.179,0.020000000000000004 c0.5,-0.6590000000000001 1.278,-1.706 2.4290000000000003,-3.35 a5.575,5.575 0 0 0 1.124,-2.7 a3.018,3.018 0 0 0 -5.98,-0.5840000000000001 a0.7420000000000001,0.7420000000000001 0 0 0 1.457,0.28600000000000003 a1.534,1.534 0 0 1 3.039,0.255 a3.662,3.662 0 0 1 -0.8560000000000001,1.8930000000000002 z" fill="#fff" stroke="#20d3c2" stroke-opacity="1"/>
    <path id="Path_32" data-name="Path 32" d="M34.220001220703125,12.248992919921875 a0.7420000000000001,0.7420000000000001 0 0 0 1.05,0 l0.8590000000000001,-0.8590000000000001 a17.444,17.444 0 0 1 4.6240000000000006,11.845 c0,0.37200000000000005 -0.012000000000000002,0.7450000000000001 -0.036000000000000004,1.117 l-0.7330000000000001,-0.8390000000000001 a0.7420000000000001,0.7420000000000001 0 0 0 -1.117,0.978 l1.783,2.039 a0.7550000000000001,0.7550000000000001 0 0 0 1.064,0.19400000000000003 l2.285,-1.6470000000000002 a0.7440000000000001,0.7440000000000001 0 0 0 0.16800000000000004,-1.037 h0 a0.7420000000000001,0.7420000000000001 0 0 0 -1.036,-0.16700000000000004 l-0.9400000000000001,0.6770000000000002 q0.04500000000000001,-0.6570000000000001 0.04600000000000001,-1.315 a18.982,18.982 0 1 0 -15.063,18.593 a0.7420000000000001,0.7420000000000001 0 1 0 -0.30700000000000005,-1.452 a17.664,17.664 0 0 1 -2.89,0.36000000000000004 v-1.224 a0.7420000000000001,0.7420000000000001 0 1 0 -1.484,0 v1.224 a17.45,17.45 0 0 1 -11.1,-4.607 l0.8590000000000001,-0.8600000000000001 a0.7420000000000001,0.7420000000000001 0 0 0 -1.049,-1.049 l-0.8600000000000001,0.8590000000000001 a17.453,17.453 0 0 1 -4.607,-11.1 h1.224 a0.7420000000000001,0.7420000000000001 0 0 0 0,-1.484 h-1.223 a17.451,17.451 0 0 1 4.606,-11.1 l0.8600000000000001,0.8600000000000001 a0.7420000000000001,0.7420000000000001 0 0 0 1.049,-1.05 l-0.8590000000000001,-0.8590000000000001 a17.45,17.45 0 0 1 11.1,-4.607 v1.223 a0.7420000000000001,0.7420000000000001 0 0 0 1.484,0 v-1.223 a17.45,17.45 0 0 1 11.1,4.607 l-0.8600000000000001,0.8600000000000001 A0.7430000000000001,0.7430000000000001 0 0 0 34.220001220703125,12.248992919921875 z" fill="#fff" stroke="#20d3c2" stroke-opacity="1"/>
    <path id="Path_33" data-name="Path 33" d="M31.680001220703133,22.49399291992188 h-5.535 a3.012,3.012 0 0 0 -2.166,-2.166 v-8.6 a0.7420000000000001,0.7420000000000001 0 1 0 -1.484,0 v8.6 a3,3 0 1 0 3.6500000000000004,3.6510000000000002 h5.535 a0.7430000000000001,0.7430000000000001 0 0 0 0,-1.485 zm-8.443,2.26 a1.518,1.518 0 1 1 1.517,-1.518 A1.5190000000000001,1.5190000000000001 0 0 1 23.23700122070312,24.75399291992187 z" fill="#fff" stroke="#20d3c2" stroke-opacity="1"/>
    <path id="Path_34" data-name="Path 34" d="M49.258001220703136,38.58099291992187 z" fill="#fff" stroke="#20d3c2" stroke-opacity="1"/>
    <path id="Path_35" data-name="Path 35" d="M49.258001220703136,40.56599291992188 a0.7420000000000001,0.7420000000000001 0 0 0 -0.7420000000000001,0.7420000000000001 v3.7 a3.073,3.073 0 0 1 -3.07,3.07 H34.14000122070311 a3.073,3.073 0 0 1 -3.069,-3.07 v-11.3 a3.073,3.073 0 0 1 3.069,-3.07 h11.306000000000001 a3.073,3.073 0 0 1 3.07,3.07 v4.134 a0.7420000000000001,0.7420000000000001 0 0 0 1.484,0 v-4.134 a4.5600000000000005,4.5600000000000005 0 0 0 -4.289,-4.546 A23.216,23.216 0 1 0 29.62000122070313,45.58299291992182 a4.559,4.559 0 0 0 4.517,3.981 h11.3 a4.559,4.559 0 0 0 4.554,-4.554 v-3.7 A0.7420000000000001,0.7420000000000001 0 0 0 49.258001220703136,40.56599291992188 zm-19.672,-6.861 h0 V44.04899291992183 A21.733,21.733 0 1 1 44.17500122070314,29.148992919921852 H34.14000122070311 A4.559,4.559 0 0 0 29.58600122070314,33.70499291992189 z" fill="#fff" stroke="#20d3c2" stroke-opacity="1"/>
  </g></g></svg>