<svg xmlns="http://www.w3.org/2000/svg" width="50" height="54.464"><rect id="backgroundrect" width="100%" height="100%" x="0" y="0" fill="none" stroke="none"/>
  
<g class="currentLayer" style=""><title>Layer 1</title><g id="Outline" class="selected" fill="#ffffff" fill-opacity="1">
    <path id="Path_596" data-name="Path 596" d="M10.184999999999945,17.427002807617185 a14.815,14.815 0 1 0 23.007,-12.338000000000001 l0.9430000000000001,-1.633 l1.6,0.926 l0.926,-1.6 l-4.811,-2.778 l-0.926,1.6 l1.6,0.926 l-0.9410000000000001,1.6310000000000002 a14.8,14.8 0 0 0 -13.18,0 l-0.9410000000000001,-1.6310000000000002 l1.6,-0.926 l-0.926,-1.6 l-4.811,2.778 l0.926,1.6 l1.6,-0.926 l0.9430000000000001,1.633 a14.815,14.815 0 0 0 -6.623,12.338000000000001 zm27.778,0 A12.963000000000001,12.963000000000001 0 1 1 25,4.464002807617192 A12.963000000000001,12.963000000000001 0 0 1 37.962999999999965,17.427002807617185 z" fill="#ffffff" fill-opacity="1"/>
    <path id="Path_597" data-name="Path 597" d="M24.073999999999955,6.3160028076171955 h1.852 v1.852 h-1.852 z" fill="#ffffff" fill-opacity="1"/>
    <path id="Path_598" data-name="Path 598" d="M18.642000000000053,8.267002807617189 l1.6,-0.926 l0.926,1.6 l-1.6,0.926 z" fill="#ffffff" fill-opacity="1"/>
    <path id="Path_599" data-name="Path 599" d="M14.913999999999987,12.6740028076172 l0.926,-1.6 l1.6,0.926 l-0.926,1.6 z" fill="#ffffff" fill-opacity="1"/>
    <path id="Path_600" data-name="Path 600" d="M13.88900000000001,16.506002807617193 h1.852 v1.852 h-1.852 z" fill="#ffffff" fill-opacity="1"/>
    <path id="Path_601" data-name="Path 601" d="M14.913999999999987,22.1800028076172 l1.6,-0.926 l0.926,1.6 l-1.6,0.926 z" fill="#ffffff" fill-opacity="1"/>
    <path id="Path_602" data-name="Path 602" d="M18.642000000000053,26.587002807617182 l0.926,-1.6 l1.6,0.926 l-0.926,1.6 z" fill="#ffffff" fill-opacity="1"/>
    <path id="Path_603" data-name="Path 603" d="M24.073999999999955,26.6860028076172 h1.852 v1.852 h-1.852 z" fill="#ffffff" fill-opacity="1"/>
    <path id="Path_604" data-name="Path 604" d="M28.826999999999998,25.9060028076172 l1.6,-0.926 l0.925,1.6 l-1.6,0.925 z" fill="#ffffff" fill-opacity="1"/>
    <path id="Path_605" data-name="Path 605" d="M32.55499999999995,22.859002807617173 l0.926,-1.6 l1.6,0.926 l-0.926,1.6 z" fill="#ffffff" fill-opacity="1"/>
    <path id="Path_606" data-name="Path 606" d="M34.259000000000015,16.506002807617193 h1.852 v1.852 h-1.852 z" fill="#ffffff" fill-opacity="1"/>
    <path id="Path_607" data-name="Path 607" d="M32.55499999999995,11.995002807617198 l1.6,-0.926 l0.925,1.6 l-1.6,0.926 z" fill="#ffffff" fill-opacity="1"/>
    <path id="Path_608" data-name="Path 608" d="M28.827999999999975,8.946002807617191 l0.925,-1.6 l1.6,0.926 l-0.926,1.6 z" fill="#ffffff" fill-opacity="1"/>
    <path id="Path_609" data-name="Path 609" d="M25,18.3530028076172 h7.407 V16.506002807617193 h-6.481 v-6.482 h-1.852 v7.408 A0.927,0.927 0 0 0 25,18.3530028076172 z" fill="#ffffff" fill-opacity="1"/>
    <path id="Path_610" data-name="Path 610" d="M49.346000000000004,20.246002807617174 l-7.407,-2.2800000000000002 l-0.545,1.77 l4.532,1.395 l-5.457,1.6790000000000003 l0.545,1.77 l7.134,-2.2 v23.063 l-22.222,6.837 v-18.19 h-1.852 v18.19 l-22.222,-6.837 V22.38400280761718 l7.135,2.2 l0.545,-1.77 l-5.458,-1.6790000000000003 l4.531,-1.395 l-0.544,-1.77 l-7.408,2.2800000000000002 a0.925,0.925 0 0 0 -0.6530000000000001,0.8850000000000001 v25 a0.927,0.927 0 0 0 0.6540000000000001,0.8850000000000001 l24.074,7.407 a0.917,0.917 0 0 0 0.544,0 l24.074,-7.407 a0.927,0.927 0 0 0 0.6540000000000001,-0.8850000000000001 v-25 A0.925,0.925 0 0 0 49.346000000000004,20.246002807617174 z" fill="#ffffff" fill-opacity="1"/>
    <path id="Path_611" data-name="Path 611" d="M19.44399999999996,38.86600280761718 a0.926,0.926 0 0 0 0.926,-0.926 V33.306002807617176 a0.927,0.927 0 0 0 -0.6530000000000001,-0.8850000000000001 l-12.963000000000001,-3.989 a0.926,0.926 0 0 0 -1.157,0.6130000000000001 a0.9,0.9 0 0 0 -0.04100000000000001,0.272 v4.63 a0.926,0.926 0 0 0 0.6530000000000001,0.8850000000000001 l12.963000000000001,3.989 A0.929,0.929 0 0 0 19.44399999999996,38.86600280761718 zm-0.925,-2.18 l-11.112,-3.419 v-2.692 l11.112,3.419 z" fill="#ffffff" fill-opacity="1"/>
    <path id="Path_612" data-name="Path 612" d="M44.06899999999996,28.57700280761719 a0.928,0.928 0 0 0 -0.8230000000000001,-0.14100000000000001 l-12.963000000000001,3.989 a0.927,0.927 0 0 0 -0.6530000000000001,0.8850000000000001 v4.63 a0.926,0.926 0 0 0 1.2,0.8850000000000001 l12.963000000000001,-3.989 a0.926,0.926 0 0 0 0.6530000000000001,-0.8850000000000001 v-4.63 A0.925,0.925 0 0 0 44.06899999999996,28.57700280761719 zm-1.476,4.69 l-11.112,3.419 v-2.692 l11.112,-3.419 z" fill="#ffffff" fill-opacity="1"/>
    <path id="Path_613" data-name="Path 613" d="M36.76999999999998,45.25900280761718 l1.8530000000000002,-0.5700000000000001 l0.544,1.771 l-1.852,0.5690000000000001 z" fill="#ffffff" fill-opacity="1"/>
    <path id="Path_614" data-name="Path 614" d="M40.47500000000002,44.11900280761719 l1.852,-0.5690000000000001 l0.545,1.77 l-1.8530000000000002,0.5700000000000001 z" fill="#ffffff" fill-opacity="1"/>
    <path id="Path_615" data-name="Path 615" d="M44.178999999999974,42.98000280761718 l1.8530000000000002,-0.5700000000000001 l0.544,1.771 l-1.852,0.5690000000000001 z" fill="#ffffff" fill-opacity="1"/>
    <path id="Path_616" data-name="Path 616" d="M12.700000000000045,47.00600280761719 l0.544,-1.77 l1.8530000000000002,0.5690000000000001 l-0.545,1.771 z" fill="#ffffff" fill-opacity="1"/>
    <path id="Path_617" data-name="Path 617" d="M16.399999999999977,48.14800280761719 l0.544,-1.771 l1.852,0.5700000000000001 l-0.544,1.77 z" fill="#ffffff" fill-opacity="1"/>
    <path id="Path_618" data-name="Path 618" d="M20.10699999999997,49.286002807617194 l0.545,-1.771 l1.852,0.5700000000000001 l-0.545,1.77 z" fill="#ffffff" fill-opacity="1"/>
  </g></g></svg>