<svg xmlns="http://www.w3.org/2000/svg" width="50" height="50"><rect id="backgroundrect" width="100%" height="100%" x="0" y="0" fill="none" stroke="none"/>
  
<g class="currentLayer" style=""><title>Layer 1</title><g id="payment_icon" data-name="payment icon" class="selected" fill="#ffffff" fill-opacity="1">
    <path id="Path_36" data-name="Path 36" d="M46.96100463867188,26.155001464843735 a3.145,3.145 0 0 0 -1.088,0.19400000000000003 a2.984,2.984 0 0 0 -3.033,-2.981 a3.145,3.145 0 0 0 -1.262,0.263 a2.963,2.963 0 0 0 -2.8600000000000003,-2.018 a3.172,3.172 0 0 0 -1.085,0.19200000000000003 V2.6770014648437837 a2.6790000000000003,2.6790000000000003 0 0 0 -2.676,-2.677 H12.506004638671868 a2.6790000000000003,2.6790000000000003 0 0 0 -2.676,2.677 v8.479 h-8.853 a0.976,0.976 0 0 0 -0.977,0.977 V26.639001464843773 a0.976,0.976 0 0 0 0.977,0.977 h8.853 v13.335 a2.6790000000000003,2.6790000000000003 0 0 0 2.676,2.676 h18.523 c1.2,1.48 1.2,2.766 1.2,4.371 a2,2 0 0 0 2,2 h1.719 a0.977,0.977 0 1 0 0,-1.953 h-1.719 a0.04800000000000001,0.04800000000000001 0 0 1 -0.04500000000000001,-0.04500000000000001 a7.707,7.707 0 0 0 -1.923,-5.936 a9.851,9.851 0 0 0 -1.572,-1.323 c-1.037,-0.7570000000000001 -1.6670000000000003,-1.2650000000000001 -1.6670000000000003,-1.924 l0,-3.071 v-4.052 a0.7270000000000001,0.7270000000000001 0 0 1 0.16500000000000004,-0.549 a1.171,1.171 0 0 1 0.916,0.08100000000000002 A2.267,2.267 0 0 1 31.561004638671875,33.36100146484375 v3.109 a0.977,0.977 0 1 0 1.953,0 V19.681001464843803 a1.065,1.065 0 0 1 1.084,-1.2 a1.1,1.1 0 0 1 0.7480000000000001,0.28 a1.215,1.215 0 0 1 0.3370000000000001,0.924 v11.283 a0.977,0.977 0 1 0 1.953,0 v-6.2 a1.064,1.064 0 0 1 1.084,-1.2 a1.1,1.1 0 0 1 0.7480000000000001,0.28 a1.212,1.212 0 0 1 0.3360000000000001,0.923 v7.231 a0.977,0.977 0 0 0 1.9540000000000002,0 v-5.476 a1.064,1.064 0 0 1 1.084,-1.2 a1.1,1.1 0 0 1 0.7480000000000001,0.28 a1.212,1.212 0 0 1 0.3360000000000001,0.923 v6.508 a0.977,0.977 0 1 0 1.953,0 v-3.72 a1.065,1.065 0 0 1 1.085,-1.2 a1.1,1.1 0 0 1 0.7480000000000001,0.28 a1.214,1.214 0 0 1 0.3360000000000001,0.924 v9.842 a6.511,6.511 0 0 1 -0.795,2.6260000000000003 a5.777,5.777 0 0 0 -0.7660000000000001,3.064 v3.158 a0.05000000000000001,0.05000000000000001 0 0 1 -0.04500000000000001,0.04500000000000001 h-1.719 a0.977,0.977 0 1 0 0,1.953 h1.719 a2,2 0 0 0 2,-2 V44.839001464843705 a3.8840000000000003,3.8840000000000003 0 0 1 0.55,-2.17 a8.424,8.424 0 0 0 1.005,-3.361 a0.924,0.924 0 0 0 0.006000000000000002,-0.1 v-9.9 A3,3 0 0 0 46.96100463867188,26.155001464843735 zm-28.9,-24.2 h11.342 v1.044 a1.048,1.048 0 0 1 -1.047,1.049 h-9.248 a1.049,1.049 0 0 1 -1.047,-1.049 zM1.953004638671871,13.1090014648438 h2.731 a3.864,3.864 0 0 1 -2.731,2.7640000000000002 zm0,12.558 v-2.7640000000000002 a3.862,3.862 0 0 1 2.731,2.7640000000000002 zm4.725,0 a5.814,5.814 0 0 0 -4.725,-4.76 V17.86900146484379 a5.814,5.814 0 0 0 4.725,-4.76 h14.1 v12.558 zm5.828,16.011 h0 a0.7240000000000001,0.7240000000000001 0 0 1 -0.7230000000000001,-0.7230000000000001 v-2.249 h15.287 v0.11400000000000002 a3.707,3.707 0 0 0 1.624,2.858 zm23.175,-24.962 a3.168,3.168 0 0 0 -1.085,-0.19200000000000003 a3.026,3.026 0 0 0 -2.085,0.81 a3.108,3.108 0 0 0 -0.9510000000000001,2.347 v10.1 a4.393,4.393 0 0 0 -0.7570000000000001,-0.38100000000000006 a2.9,2.9 0 0 0 -2.71,0.12300000000000001 a2.462,2.462 0 0 0 -1.026,2.143 v5.082 H11.783004638671883 v-9.133 h8.992 V29.03900146484375 a0.977,0.977 0 0 0 1.953,0 V9.739001464843795 a0.977,0.977 0 0 0 -1.953,0 v1.421 h-8.992 v-8.479 a0.7230000000000001,0.7230000000000001 0 0 1 0.7230000000000001,-0.7230000000000001 h3.6 v1.044 a3,3 0 0 0 3,3 h9.248 a3,3 0 0 0 3,-3 v-1.044 h3.6 a0.7230000000000001,0.7230000000000001 0 0 1 0.7230000000000001,0.7230000000000001 z" fill="#ffffff" fill-opacity="1"/>
    <path id="Path_37" data-name="Path 37" d="M13.494004638671868,15.139001464843773 a4.251,4.251 0 1 0 4.226,4.251 A4.243,4.243 0 0 0 13.494004638671868,15.139001464843773 zm0,6.549 a2.3,2.3 0 1 1 2.273,-2.3 A2.2880000000000003,2.2880000000000003 0 0 1 13.494004638671868,21.686001464843798 z" fill="#ffffff" fill-opacity="1"/>
    <path id="Path_38" data-name="Path 38" d="M40.337004638671885,48.04700146484379 a0.977,0.977 0 1 0 0,1.953 h0 a0.977,0.977 0 0 0 0,-1.953 z" fill="#ffffff" fill-opacity="1"/>
  </g></g></svg>